<mxfile host="app.diagrams.net" modified="2023-12-15T14:26:59.155Z" agent="Mozilla/5.0 (Macintosh; Intel Mac OS X 10_15_7) AppleWebKit/605.1.15 (KHTML, like Gecko) Version/16.5 Safari/605.1.15" version="22.1.9" etag="an2oiXunMtPZqHpk026K" type="github">
  <diagram name="第 1 页" id="8w8cnCKI-UPCcAJevsUZ">
    <mxGraphModel>
      <root>
        <mxCell id="0" />
        <mxCell id="1" parent="0" />
      </root>
    </mxGraphModel>
  </diagram>
</mxfile>
